<?xml version="1.0" encoding="UTF-8"?>
<!-- Do not edit this file with editors other than draw.io -->
<!DOCTYPE svg PUBLIC "-//W3C//DTD SVG 1.1//EN" "http://www.w3.org/Graphics/SVG/1.1/DTD/svg11.dtd">
<svg xmlns="http://www.w3.org/2000/svg" style="background: transparent; background-color: transparent; color-scheme: light dark;" xmlns:xlink="http://www.w3.org/1999/xlink" version="1.1" width="268px" height="671px" viewBox="0 0 268 671" id="ge-svg-K92xU-aGJyyAPOJcLzJn" content="&lt;mxfile host=&quot;Electron&quot;&gt;&#10;  &lt;diagram name=&quot;Página-1&quot; id=&quot;b1GOWPL6YNx1U61K0lMm&quot;&gt;&#10;    &lt;mxGraphModel dx=&quot;1414&quot; dy=&quot;768&quot; grid=&quot;1&quot; gridSize=&quot;10&quot; guides=&quot;1&quot; tooltips=&quot;1&quot; connect=&quot;1&quot; arrows=&quot;1&quot; fold=&quot;1&quot; page=&quot;1&quot; pageScale=&quot;1&quot; pageWidth=&quot;827&quot; pageHeight=&quot;1169&quot; math=&quot;0&quot; shadow=&quot;0&quot;&gt;&#10;      &lt;root&gt;&#10;        &lt;mxCell id=&quot;0&quot; /&gt;&#10;        &lt;mxCell id=&quot;1&quot; parent=&quot;0&quot; /&gt;&#10;        &lt;mxCell id=&quot;a5W7ScN4wuMC1Rjc91Gx-9&quot; parent=&quot;1&quot; style=&quot;whiteSpace=wrap;html=1;aspect=fixed;&quot; value=&quot;&amp;lt;ul&amp;gt;&amp;lt;li&amp;gt;&amp;lt;br&amp;gt;&amp;lt;/li&amp;gt;&amp;lt;/ul&amp;gt;&quot; vertex=&quot;1&quot;&gt;&#10;          &lt;mxGeometry height=&quot;146.88&quot; width=&quot;146.88&quot; x=&quot;434.5&quot; y=&quot;593.12&quot; as=&quot;geometry&quot; /&gt;&#10;        &lt;/mxCell&gt;&#10;        &lt;mxCell id=&quot;Ouyg0PosjArzcMBJDUIF-1&quot; edge=&quot;1&quot; parent=&quot;1&quot; source=&quot;a5W7ScN4wuMC1Rjc91Gx-6&quot; style=&quot;edgeStyle=orthogonalEdgeStyle;rounded=0;orthogonalLoop=1;jettySize=auto;html=1;exitX=1;exitY=0.5;exitDx=0;exitDy=0;&quot;&gt;&#10;          &lt;mxGeometry relative=&quot;1&quot; as=&quot;geometry&quot;&gt;&#10;            &lt;mxPoint x=&quot;585&quot; y=&quot;465&quot; as=&quot;targetPoint&quot; /&gt;&#10;          &lt;/mxGeometry&gt;&#10;        &lt;/mxCell&gt;&#10;        &lt;mxCell id=&quot;a5W7ScN4wuMC1Rjc91Gx-6&quot; parent=&quot;1&quot; style=&quot;whiteSpace=wrap;html=1;aspect=fixed;&quot; value=&quot;&amp;lt;div style=&amp;quot;text-align: justify;&amp;quot;&amp;gt;&amp;lt;ul&amp;gt;&amp;lt;li&amp;gt;&amp;lt;font size=&amp;quot;1&amp;quot;&amp;gt;POST/resolveEntrypoint&amp;lt;/font&amp;gt;&amp;lt;/li&amp;gt;&amp;lt;li&amp;gt;findBySubjecktKey&amp;lt;/li&amp;gt;&amp;lt;/ul&amp;gt;&amp;lt;/div&amp;gt;&quot; vertex=&quot;1&quot;&gt;&#10;          &lt;mxGeometry height=&quot;160&quot; width=&quot;160&quot; x=&quot;434.5&quot; y=&quot;390&quot; as=&quot;geometry&quot; /&gt;&#10;        &lt;/mxCell&gt;&#10;        &lt;mxCell id=&quot;a5W7ScN4wuMC1Rjc91Gx-3&quot; edge=&quot;1&quot; parent=&quot;1&quot; source=&quot;a5W7ScN4wuMC1Rjc91Gx-1&quot; style=&quot;edgeStyle=orthogonalEdgeStyle;rounded=0;orthogonalLoop=1;jettySize=auto;html=1;&quot; target=&quot;a5W7ScN4wuMC1Rjc91Gx-2&quot; value=&quot;&quot;&gt;&#10;          &lt;mxGeometry relative=&quot;1&quot; as=&quot;geometry&quot; /&gt;&#10;        &lt;/mxCell&gt;&#10;        &lt;mxCell id=&quot;a5W7ScN4wuMC1Rjc91Gx-1&quot; parent=&quot;1&quot; style=&quot;outlineConnect=0;dashed=0;verticalLabelPosition=bottom;verticalAlign=top;align=center;html=1;shape=mxgraph.aws3.mobile_client;fillColor=#dae8fc;strokeColor=#6c8ebf;&quot; value=&quot;&amp;lt;div&amp;gt;CLIENT&amp;lt;/div&amp;gt;&amp;lt;div&amp;gt;&amp;lt;br&amp;gt;&amp;lt;/div&amp;gt;&quot; vertex=&quot;1&quot;&gt;&#10;          &lt;mxGeometry height=&quot;78&quot; width=&quot;78&quot; x=&quot;379.75&quot; y=&quot;70&quot; as=&quot;geometry&quot; /&gt;&#10;        &lt;/mxCell&gt;&#10;        &lt;mxCell id=&quot;a5W7ScN4wuMC1Rjc91Gx-5&quot; edge=&quot;1&quot; parent=&quot;1&quot; source=&quot;a5W7ScN4wuMC1Rjc91Gx-2&quot; style=&quot;edgeStyle=orthogonalEdgeStyle;rounded=0;orthogonalLoop=1;jettySize=auto;html=1;&quot; target=&quot;a5W7ScN4wuMC1Rjc91Gx-4&quot; value=&quot;&quot;&gt;&#10;          &lt;mxGeometry relative=&quot;1&quot; as=&quot;geometry&quot; /&gt;&#10;        &lt;/mxCell&gt;&#10;        &lt;mxCell id=&quot;a5W7ScN4wuMC1Rjc91Gx-2&quot; parent=&quot;1&quot; style=&quot;sketch=0;points=[[0,0,0],[0.25,0,0],[0.5,0,0],[0.75,0,0],[1,0,0],[0,1,0],[0.25,1,0],[0.5,1,0],[0.75,1,0],[1,1,0],[0,0.25,0],[0,0.5,0],[0,0.75,0],[1,0.25,0],[1,0.5,0],[1,0.75,0]];outlineConnect=0;fillColor=#dae8fc;strokeColor=#6c8ebf;dashed=0;verticalLabelPosition=bottom;verticalAlign=top;align=center;html=1;fontSize=12;fontStyle=0;aspect=fixed;shape=mxgraph.aws4.resourceIcon;resIcon=mxgraph.aws4.api_gateway;&quot; value=&quot;API GATEWAY&amp;lt;div&amp;gt;&amp;lt;br&amp;gt;&amp;lt;/div&amp;gt;&quot; vertex=&quot;1&quot;&gt;&#10;          &lt;mxGeometry height=&quot;78&quot; width=&quot;78&quot; x=&quot;379.75&quot; y=&quot;250&quot; as=&quot;geometry&quot; /&gt;&#10;        &lt;/mxCell&gt;&#10;        &lt;mxCell id=&quot;a5W7ScN4wuMC1Rjc91Gx-4&quot; parent=&quot;1&quot; style=&quot;aspect=fixed;sketch=0;html=1;dashed=0;whitespace=wrap;verticalLabelPosition=bottom;verticalAlign=top;fillColor=#dae8fc;strokeColor=#6c8ebf;points=[[0.005,0.63,0],[0.1,0.2,0],[0.9,0.2,0],[0.5,0,0],[0.995,0.63,0],[0.72,0.99,0],[0.5,1,0],[0.28,0.99,0]];shape=mxgraph.kubernetes.icon2;prIcon=pod&quot; value=&quot;JOURNEY BFF&amp;lt;div&amp;gt;&amp;lt;br&amp;gt;&amp;lt;/div&amp;gt;&quot; vertex=&quot;1&quot;&gt;&#10;          &lt;mxGeometry height=&quot;74.88&quot; width=&quot;78&quot; x=&quot;379&quot; y=&quot;420&quot; as=&quot;geometry&quot; /&gt;&#10;        &lt;/mxCell&gt;&#10;        &lt;mxCell id=&quot;a5W7ScN4wuMC1Rjc91Gx-7&quot; parent=&quot;1&quot; style=&quot;aspect=fixed;sketch=0;html=1;dashed=0;whitespace=wrap;verticalLabelPosition=bottom;verticalAlign=top;fillColor=#dae8fc;strokeColor=#6c8ebf;points=[[0.005,0.63,0],[0.1,0.2,0],[0.9,0.2,0],[0.5,0,0],[0.995,0.63,0],[0.72,0.99,0],[0.5,1,0],[0.28,0.99,0]];shape=mxgraph.kubernetes.icon2;prIcon=pod&quot; value=&quot;JOURNEY&amp;lt;div&amp;gt;-RESOLUTION-READ-MODEL&amp;lt;/div&amp;gt;&quot; vertex=&quot;1&quot;&gt;&#10;          &lt;mxGeometry height=&quot;74.88&quot; width=&quot;78&quot; x=&quot;379.75&quot; y=&quot;600&quot; as=&quot;geometry&quot; /&gt;&#10;        &lt;/mxCell&gt;&#10;        &lt;mxCell id=&quot;a5W7ScN4wuMC1Rjc91Gx-8&quot; edge=&quot;1&quot; parent=&quot;1&quot; source=&quot;a5W7ScN4wuMC1Rjc91Gx-4&quot; style=&quot;edgeStyle=orthogonalEdgeStyle;rounded=0;orthogonalLoop=1;jettySize=auto;html=1;entryX=0.5;entryY=0;entryDx=0;entryDy=0;entryPerimeter=0;&quot; target=&quot;a5W7ScN4wuMC1Rjc91Gx-7&quot;&gt;&#10;          &lt;mxGeometry relative=&quot;1&quot; as=&quot;geometry&quot; /&gt;&#10;        &lt;/mxCell&gt;&#10;      &lt;/root&gt;&#10;    &lt;/mxGraphModel&gt;&#10;  &lt;/diagram&gt;&#10;&lt;/mxfile&gt;&#10;"><style type="text/css">@supports (color: light-dark(#000, #fff)) { #ge-svg-K92xU-aGJyyAPOJcLzJn { --ge-adaptive-bg: light-dark(#ffffff, var(--ge-dark-color, #121212)); } }</style><defs/><g><g data-cell-id="0"><g data-cell-id="1"><g data-cell-id="a5W7ScN4wuMC1Rjc91Gx-9"><g transform="translate(0.5,0.5)"><rect x="98.5" y="523.12" width="146.88" height="146.88" fill="#ffffff" stroke="#000000" pointer-events="all" style="fill: var(--ge-adaptive-bg, #ffffff); stroke: light-dark(rgb(0, 0, 0), rgb(255, 255, 255));"/></g><g><g><switch><foreignObject style="overflow: visible; text-align: left;" pointer-events="none" width="100%" height="100%" requiredFeatures="http://www.w3.org/TR/SVG11/feature#Extensibility"><div xmlns="http://www.w3.org/1999/xhtml" style="display: flex; align-items: unsafe center; justify-content: unsafe center; width: 145px; height: 1px; padding-top: 597px; margin-left: 100px;"><div style="box-sizing: border-box; font-size: 0; text-align: center; color: #000000; "><div style="display: inline-block; font-size: 12px; font-family: Helvetica; color: light-dark(#000000, #ffffff); line-height: 1.2; pointer-events: all; white-space: normal; word-wrap: normal; "><ul><li><br /></li></ul></div></div></div></foreignObject><text x="172" y="600" fill="light-dark(#000000, #ffffff)" font-family="Helvetica" font-size="12px" text-anchor="middle"></text></switch></g></g></g><g data-cell-id="Ouyg0PosjArzcMBJDUIF-1"><g transform="translate(0.5,0.5)"><path d="M 258.5 400 L 249 400 L 249 401.37" fill="none" stroke="#000000" stroke-miterlimit="10" pointer-events="stroke" style="stroke: light-dark(rgb(0, 0, 0), rgb(255, 255, 255));"/><path d="M 249 396.12 L 252.5 403.12 L 249 401.37 L 245.5 403.12 Z" fill="#000000" stroke="#000000" stroke-miterlimit="10" pointer-events="all" style="fill: light-dark(rgb(0, 0, 0), rgb(255, 255, 255)); stroke: light-dark(rgb(0, 0, 0), rgb(255, 255, 255));"/></g></g><g data-cell-id="a5W7ScN4wuMC1Rjc91Gx-6"><g transform="translate(0.5,0.5)"><rect x="98.5" y="320" width="160" height="160" fill="#ffffff" stroke="#000000" pointer-events="all" style="fill: var(--ge-adaptive-bg, #ffffff); stroke: light-dark(rgb(0, 0, 0), rgb(255, 255, 255));"/></g><g><g><switch><foreignObject style="overflow: visible; text-align: left;" pointer-events="none" width="100%" height="100%" requiredFeatures="http://www.w3.org/TR/SVG11/feature#Extensibility"><div xmlns="http://www.w3.org/1999/xhtml" style="display: flex; align-items: unsafe center; justify-content: unsafe center; width: 158px; height: 1px; padding-top: 400px; margin-left: 100px;"><div style="box-sizing: border-box; font-size: 0; text-align: center; color: #000000; "><div style="display: inline-block; font-size: 12px; font-family: Helvetica; color: light-dark(#000000, #ffffff); line-height: 1.2; pointer-events: all; white-space: normal; word-wrap: normal; "><div style="text-align: justify;"><ul><li><span style="font-size: x-small;">POST/resolveEntrypoint</span></li><li>findBySubjecktKey</li></ul></div></div></div></div></foreignObject><text x="179" y="404" fill="light-dark(#000000, #ffffff)" font-family="Helvetica" font-size="12px" text-anchor="middle">POST/resolveEntrypointfindBySubjecktKey</text></switch></g></g></g><g data-cell-id="a5W7ScN4wuMC1Rjc91Gx-3"><g transform="translate(0.5,0.5)"><path d="M 82.75 78 L 82.75 173.63" fill="none" stroke="#000000" stroke-miterlimit="10" pointer-events="stroke" style="stroke: light-dark(rgb(0, 0, 0), rgb(255, 255, 255));"/><path d="M 82.75 178.88 L 79.25 171.88 L 82.75 173.63 L 86.25 171.88 Z" fill="#000000" stroke="#000000" stroke-miterlimit="10" pointer-events="all" style="fill: light-dark(rgb(0, 0, 0), rgb(255, 255, 255)); stroke: light-dark(rgb(0, 0, 0), rgb(255, 255, 255));"/></g></g><g data-cell-id="a5W7ScN4wuMC1Rjc91Gx-1"><g transform="translate(0.5,0.5)"><path d="M 50.45 78 C 46.88 78 43.75 76.04 43.75 73.67 L 43.75 4.31 C 43.75 1.83 46.86 0 50.22 0 L 115.02 0 C 118.44 0 121.75 1.78 121.75 4.4 L 121.75 73.74 C 121.75 76.15 118.67 78 115.31 78 Z" fill="#dae8fc" stroke="none" pointer-events="all" style="fill: light-dark(rgb(218, 232, 252), rgb(29, 41, 59));"/><path d="M 115.28 74.52 C 117.93 74.52 121.75 72.95 121.75 70.23 L 121.75 73.74 C 121.75 76.13 118.67 78 115.31 78 L 50.45 78 C 46.88 78 43.75 76.04 43.75 73.67 L 43.75 70.16 C 43.75 72.84 47.06 74.52 50.11 74.52 Z" fill-opacity="0.3" fill="#000000" stroke="none" pointer-events="all" style="fill: light-dark(rgb(0, 0, 0), rgb(237, 237, 237));"/><rect x="43.75" y="0" width="0" height="0" fill="none" stroke="#6c8ebf" pointer-events="all" style="stroke: light-dark(rgb(108, 142, 191), rgb(92, 121, 163));"/><path d="M 63.01 10.27 C 60.74 10.27 58.8 9.01 58.8 7.42 C 58.8 5.53 61.36 4.72 63.07 4.72 L 102.03 4.72 C 104.68 4.72 106.28 6.23 106.28 7.46 C 106.28 9.05 104.34 10.27 102.03 10.27 Z M 55.41 59.54 C 53.5 59.54 51.13 58.61 51.13 56.91 L 51.13 17.72 C 51.13 15.86 53.64 14.99 55.52 14.99 L 109.89 14.99 C 112.09 14.99 114.2 16 114.2 17.65 L 114.2 56.95 C 114.2 58.26 112.17 59.54 109.87 59.54 Z M 82.51 72.58 C 79.37 72.58 74.87 71.06 74.87 67.53 C 74.87 64.99 78.35 62.87 82.48 62.87 C 87.15 62.87 90.26 65.33 90.26 67.64 C 90.26 69.86 87.12 72.58 82.51 72.58 Z" fill="#ffffff" stroke="none" pointer-events="all" style="fill: light-dark(rgb(255, 255, 255), rgb(18, 18, 18));"/></g><g><g><switch><foreignObject style="overflow: visible; text-align: left;" pointer-events="none" width="100%" height="100%" requiredFeatures="http://www.w3.org/TR/SVG11/feature#Extensibility"><div xmlns="http://www.w3.org/1999/xhtml" style="display: flex; align-items: unsafe flex-start; justify-content: unsafe center; width: 1px; height: 1px; padding-top: 85px; margin-left: 83px;"><div style="box-sizing: border-box; font-size: 0; text-align: center; color: #000000; "><div style="display: inline-block; font-size: 12px; font-family: Helvetica; color: light-dark(#000000, #ffffff); line-height: 1.2; pointer-events: all; white-space: nowrap; "><div>CLIENT</div><div><br /></div></div></div></div></foreignObject><text x="83" y="97" fill="light-dark(#000000, #ffffff)" font-family="Helvetica" font-size="12px" text-anchor="middle"><tspan x="83" y="97">CLIENT</tspan><tspan x="83" y="111"></tspan></text></switch></g></g></g><g data-cell-id="a5W7ScN4wuMC1Rjc91Gx-5"><g transform="translate(0.5,0.5)"><path d="M 82.8 258 L 82.8 304 L 82.11 343.63" fill="none" stroke="#000000" stroke-miterlimit="10" pointer-events="stroke" style="stroke: light-dark(rgb(0, 0, 0), rgb(255, 255, 255));"/><path d="M 82.02 348.88 L 78.64 341.82 L 82.11 343.63 L 85.64 341.94 Z" fill="#000000" stroke="#000000" stroke-miterlimit="10" pointer-events="all" style="fill: light-dark(rgb(0, 0, 0), rgb(255, 255, 255)); stroke: light-dark(rgb(0, 0, 0), rgb(255, 255, 255));"/></g></g><g data-cell-id="a5W7ScN4wuMC1Rjc91Gx-2"><g transform="translate(0.5,0.5)"><path d="M 43.75 180 L 121.75 180 L 121.75 258 L 43.75 258 Z" fill="#dae8fc" stroke="none" pointer-events="all" style="fill: light-dark(rgb(218, 232, 252), rgb(29, 41, 59));"/><path d="M 76.14 236.43 L 79.41 236.43 L 79.41 234.19 L 76.14 234.19 Z M 81.64 236.43 L 84.98 236.43 L 84.98 234.19 L 81.64 234.19 Z M 68.28 190.78 L 53.8 197.97 L 53.8 242.62 L 68.28 247.52 Z M 70.5 204.99 L 70.5 234.19 L 73.84 234.19 L 73.84 236.43 L 70.5 236.43 L 70.5 249.08 C 70.5 249.44 70.33 249.78 70.04 249.99 C 69.85 250.13 69.62 250.2 69.39 250.2 C 69.27 250.2 69.15 250.18 69.04 250.14 L 52.34 244.5 C 51.88 244.34 51.58 243.91 51.58 243.43 L 51.58 197.27 C 51.58 196.84 51.82 196.45 52.2 196.26 L 68.9 187.97 C 69.24 187.8 69.65 187.82 69.98 188.03 C 70.3 188.23 70.5 188.59 70.5 188.98 L 70.5 202.75 L 73.84 202.75 L 73.84 204.99 Z M 87.2 236.43 L 90.54 236.43 L 90.54 234.19 L 87.2 234.19 Z M 87.28 204.99 L 90.54 204.99 L 90.54 202.75 L 87.28 202.75 Z M 81.71 204.99 L 84.98 204.99 L 84.98 202.75 L 81.71 202.75 Z M 76.14 204.99 L 79.41 204.99 L 79.41 202.75 L 76.14 202.75 Z M 111.7 197.97 L 97.22 190.78 L 97.22 247.52 L 111.7 242.62 Z M 113.92 243.43 C 113.92 243.91 113.62 244.34 113.16 244.5 L 96.46 250.14 C 96.35 250.18 96.23 250.2 96.11 250.2 C 95.88 250.2 95.65 250.13 95.46 249.99 C 95.17 249.78 95 249.44 95 249.08 L 95 236.43 L 92.84 236.43 L 92.84 234.19 L 95 234.19 L 95 204.99 L 92.84 204.99 L 92.84 202.75 L 95 202.75 L 95 188.98 C 95 188.59 95.2 188.23 95.52 188.03 C 95.85 187.82 96.26 187.8 96.6 187.97 L 113.3 196.26 C 113.68 196.45 113.92 196.84 113.92 197.27 Z M 86.02 212.13 L 83.94 211.33 L 78.37 225.92 L 80.45 226.73 Z M 93.56 219.26 C 93.99 218.82 93.99 218.11 93.56 217.67 L 89.1 213.18 L 87.53 214.77 L 91.2 218.47 L 87.53 222.16 L 89.1 223.75 Z M 76.4 223.75 L 71.94 219.26 C 71.51 218.82 71.51 218.11 71.94 217.67 L 76.4 213.18 L 77.97 214.77 L 74.3 218.47 L 77.97 222.16 Z" fill="#6c8ebf" stroke="none" pointer-events="all" style="fill: light-dark(rgb(108, 142, 191), rgb(92, 121, 163));"/></g><g><g><switch><foreignObject style="overflow: visible; text-align: left;" pointer-events="none" width="100%" height="100%" requiredFeatures="http://www.w3.org/TR/SVG11/feature#Extensibility"><div xmlns="http://www.w3.org/1999/xhtml" style="display: flex; align-items: unsafe flex-start; justify-content: unsafe center; width: 1px; height: 1px; padding-top: 265px; margin-left: 83px;"><div style="box-sizing: border-box; font-size: 0; text-align: center; color: #000000; "><div style="display: inline-block; font-size: 12px; font-family: Helvetica; color: light-dark(#000000, #ffffff); line-height: 1.2; pointer-events: all; white-space: nowrap; ">API GATEWAY<div><br /></div></div></div></div></foreignObject><text x="83" y="277" fill="light-dark(#000000, #ffffff)" font-family="Helvetica" font-size="12px" text-anchor="middle"><tspan x="83" y="277">API GATEWAY</tspan><tspan x="83" y="291"></tspan></text></switch></g></g></g><g data-cell-id="a5W7ScN4wuMC1Rjc91Gx-4"><g transform="translate(0.5,0.5)"><path d="M 81.72 350.04 C 81.04 350.09 80.35 350.26 79.75 350.56 L 52.94 363.34 C 51.53 364.03 50.5 365.31 50.16 366.81 L 43.53 395.59 C 43.23 396.91 43.49 398.32 44.22 399.48 C 44.35 399.61 44.43 399.73 44.52 399.91 L 63.08 422.96 C 64.06 424.15 65.56 424.88 67.1 424.88 L 96.86 424.88 C 98.4 424.88 99.9 424.15 100.88 422.96 L 119.44 399.86 C 120.38 398.67 120.77 397.08 120.42 395.59 L 113.8 366.81 C 113.45 365.31 112.43 364.03 111.02 363.34 L 84.2 350.56 C 83.43 350.17 82.58 350 81.72 350.04 Z" fill="#6c8ebf" stroke="none" pointer-events="all" style="fill: light-dark(rgb(108, 142, 191), rgb(92, 121, 163));"/><path d="M 81.74 352.29 C 81.1 352.33 80.45 352.49 79.89 352.77 L 54.69 364.79 C 53.36 365.43 52.39 366.64 52.07 368.04 L 45.84 395.1 C 45.56 396.34 45.8 397.67 46.48 398.76 C 46.61 398.88 46.69 399 46.77 399.16 L 64.21 420.82 C 65.14 421.95 66.54 422.63 67.99 422.63 L 95.97 422.63 C 97.42 422.63 98.82 421.95 99.75 420.82 L 117.19 399.12 C 118.08 397.99 118.44 396.5 118.12 395.1 L 111.89 368.04 C 111.57 366.64 110.6 365.43 109.27 364.79 L 84.07 352.77 C 83.35 352.41 82.54 352.25 81.74 352.29 Z" fill="#dae8fc" stroke="none" pointer-events="all" style="fill: light-dark(rgb(218, 232, 252), rgb(29, 41, 59));"/><path d="M 104.46 374.19 L 104.46 398.1 L 83.54 409.69 L 83.43 380.45 Z M 59.54 374.19 L 59.54 398.1 L 80.47 409.69 L 80.57 380.45 Z M 59.54 371.7 L 82 365.19 L 104.46 371.7 L 82 378.21 Z" fill="#6c8ebf" stroke="none" pointer-events="all" style="fill: light-dark(rgb(108, 142, 191), rgb(92, 121, 163));"/></g><g><g><switch><foreignObject style="overflow: visible; text-align: left;" pointer-events="none" width="100%" height="100%" requiredFeatures="http://www.w3.org/TR/SVG11/feature#Extensibility"><div xmlns="http://www.w3.org/1999/xhtml" style="display: flex; align-items: unsafe flex-start; justify-content: unsafe center; width: 1px; height: 1px; padding-top: 432px; margin-left: 82px;"><div style="box-sizing: border-box; font-size: 0; text-align: center; color: #000000; "><div style="display: inline-block; font-size: 12px; font-family: Helvetica; color: light-dark(#000000, #ffffff); line-height: 1.2; pointer-events: all; white-space: nowrap; ">JOURNEY BFF<div><br /></div></div></div></div></foreignObject><text x="82" y="444" fill="light-dark(#000000, #ffffff)" font-family="Helvetica" font-size="12px" text-anchor="middle"><tspan x="82" y="444">JOURNEY BFF</tspan><tspan x="82" y="458"></tspan></text></switch></g></g></g><g data-cell-id="a5W7ScN4wuMC1Rjc91Gx-7"><g transform="translate(0.5,0.5)"><path d="M 82.47 530.04 C 81.79 530.09 81.1 530.26 80.5 530.56 L 53.69 543.34 C 52.28 544.03 51.25 545.31 50.91 546.81 L 44.28 575.59 C 43.98 576.91 44.24 578.32 44.97 579.48 C 45.1 579.61 45.18 579.73 45.27 579.91 L 63.83 602.96 C 64.81 604.15 66.31 604.88 67.85 604.88 L 97.61 604.88 C 99.15 604.88 100.65 604.15 101.63 602.96 L 120.19 579.86 C 121.13 578.67 121.52 577.08 121.17 575.59 L 114.55 546.81 C 114.2 545.31 113.18 544.03 111.77 543.34 L 84.95 530.56 C 84.18 530.17 83.33 530 82.47 530.04 Z" fill="#6c8ebf" stroke="none" pointer-events="all" style="fill: light-dark(rgb(108, 142, 191), rgb(92, 121, 163));"/><path d="M 82.49 532.29 C 81.85 532.33 81.2 532.49 80.64 532.77 L 55.44 544.79 C 54.11 545.43 53.14 546.64 52.82 548.04 L 46.59 575.1 C 46.31 576.34 46.55 577.67 47.23 578.76 C 47.36 578.88 47.44 579 47.52 579.16 L 64.96 600.82 C 65.89 601.95 67.29 602.63 68.74 602.63 L 96.72 602.63 C 98.17 602.63 99.57 601.95 100.5 600.82 L 117.94 579.12 C 118.83 577.99 119.19 576.5 118.87 575.1 L 112.64 548.04 C 112.32 546.64 111.35 545.43 110.02 544.79 L 84.82 532.77 C 84.1 532.41 83.29 532.25 82.49 532.29 Z" fill="#dae8fc" stroke="none" pointer-events="all" style="fill: light-dark(rgb(218, 232, 252), rgb(29, 41, 59));"/><path d="M 105.21 554.19 L 105.21 578.1 L 84.29 589.69 L 84.18 560.45 Z M 60.29 554.19 L 60.29 578.1 L 81.22 589.69 L 81.32 560.45 Z M 60.29 551.7 L 82.75 545.19 L 105.21 551.7 L 82.75 558.21 Z" fill="#6c8ebf" stroke="none" pointer-events="all" style="fill: light-dark(rgb(108, 142, 191), rgb(92, 121, 163));"/></g><g><g><switch><foreignObject style="overflow: visible; text-align: left;" pointer-events="none" width="100%" height="100%" requiredFeatures="http://www.w3.org/TR/SVG11/feature#Extensibility"><div xmlns="http://www.w3.org/1999/xhtml" style="display: flex; align-items: unsafe flex-start; justify-content: unsafe center; width: 1px; height: 1px; padding-top: 612px; margin-left: 83px;"><div style="box-sizing: border-box; font-size: 0; text-align: center; color: #000000; "><div style="display: inline-block; font-size: 12px; font-family: Helvetica; color: light-dark(#000000, #ffffff); line-height: 1.2; pointer-events: all; white-space: nowrap; ">JOURNEY<div>-RESOLUTION-READ-MODEL</div></div></div></div></foreignObject><text x="83" y="624" fill="light-dark(#000000, #ffffff)" font-family="Helvetica" font-size="12px" text-anchor="middle"><tspan x="83" y="624">JOURNEY</tspan><tspan x="83" y="638">-RESOLUTION-READ-MODEL</tspan></text></switch></g></g></g><g data-cell-id="a5W7ScN4wuMC1Rjc91Gx-8"><g transform="translate(0.5,0.5)"><path d="M 82 424.88 L 82 477.5 L 82.66 523.63" fill="none" stroke="#000000" stroke-miterlimit="10" pointer-events="stroke" style="stroke: light-dark(rgb(0, 0, 0), rgb(255, 255, 255));"/><path d="M 82.73 528.88 L 79.13 521.93 L 82.66 523.63 L 86.13 521.83 Z" fill="#000000" stroke="#000000" stroke-miterlimit="10" pointer-events="all" style="fill: light-dark(rgb(0, 0, 0), rgb(255, 255, 255)); stroke: light-dark(rgb(0, 0, 0), rgb(255, 255, 255));"/></g></g></g></g></g><switch><g requiredFeatures="http://www.w3.org/TR/SVG11/feature#Extensibility"/><a transform="translate(0,-5)" xlink:href="https://www.drawio.com/doc/faq/svg-export-text-problems" target="_blank"><text text-anchor="middle" font-size="10px" x="50%" y="100%">Text is not SVG - cannot display</text></a></switch></svg>